<mxfile host="65bd71144e">
    <diagram id="VRIWvG7t2p2S4sPS8mSp" name="Page-1">
        <mxGraphModel dx="1930" dy="-1169" grid="1" gridSize="10" guides="1" tooltips="1" connect="1" arrows="1" fold="1" page="1" pageScale="1" pageWidth="1169" pageHeight="827" math="0" shadow="0">
            <root>
                <mxCell id="0"/>
                <mxCell id="1" parent="0"/>
                <mxCell id="151" value="Выдача расходников" style="swimlane;html=1;childLayout=stackLayout;resizeParent=1;resizeParentMax=0;horizontal=0;startSize=20;horizontalStack=0;whiteSpace=wrap;strokeColor=default;" parent="1" vertex="1">
                    <mxGeometry x="80" y="2560" width="800" height="280" as="geometry"/>
                </mxCell>
                <mxCell id="152" value="Исполнитель" style="swimlane;html=1;startSize=20;horizontal=0;strokeColor=default;" parent="151" vertex="1">
                    <mxGeometry x="20" width="780" height="120" as="geometry"/>
                </mxCell>
                <mxCell id="164" value="" style="points=[[0.145,0.145,0],[0.5,0,0],[0.855,0.145,0],[1,0.5,0],[0.855,0.855,0],[0.5,1,0],[0.145,0.855,0],[0,0.5,0]];shape=mxgraph.bpmn.event;html=1;verticalLabelPosition=bottom;labelBackgroundColor=#ffffff;verticalAlign=top;align=center;perimeter=ellipsePerimeter;outlineConnect=0;aspect=fixed;outline=standard;symbol=general;strokeColor=default;" parent="152" vertex="1">
                    <mxGeometry x="60" y="35" width="50" height="50" as="geometry"/>
                </mxCell>
                <mxCell id="165" value="Получение&lt;br&gt;исполнителем заказа" style="text;html=1;align=center;verticalAlign=middle;resizable=0;points=[];autosize=1;strokeColor=none;fillColor=none;" parent="152" vertex="1">
                    <mxGeometry x="10" width="150" height="40" as="geometry"/>
                </mxCell>
                <mxCell id="172" value="Получение расходников исполнителем" style="points=[[0.25,0,0],[0.5,0,0],[0.75,0,0],[1,0.25,0],[1,0.5,0],[1,0.75,0],[0.75,1,0],[0.5,1,0],[0.25,1,0],[0,0.75,0],[0,0.5,0],[0,0.25,0]];shape=mxgraph.bpmn.task;whiteSpace=wrap;rectStyle=rounded;size=10;html=1;taskMarker=manual;strokeColor=default;" parent="152" vertex="1">
                    <mxGeometry x="549" y="20" width="120" height="80" as="geometry"/>
                </mxCell>
                <mxCell id="IVOCab5pVsxxlHQSK73W-303" value="" style="edgeStyle=orthogonalEdgeStyle;rounded=0;orthogonalLoop=1;jettySize=auto;html=1;" parent="152" source="IVOCab5pVsxxlHQSK73W-301" target="172" edge="1">
                    <mxGeometry relative="1" as="geometry"/>
                </mxCell>
                <mxCell id="IVOCab5pVsxxlHQSK73W-301" value="Уведомление&lt;div&gt;о готовности расходников&lt;/div&gt;" style="points=[[0.25,0,0],[0.5,0,0],[0.75,0,0],[1,0.25,0],[1,0.5,0],[1,0.75,0],[0.75,1,0],[0.5,1,0],[0.25,1,0],[0,0.75,0],[0,0.5,0],[0,0.25,0]];shape=mxgraph.bpmn.task;whiteSpace=wrap;rectStyle=rounded;size=10;html=1;container=1;expand=0;collapsible=0;taskMarker=send;" parent="152" vertex="1">
                    <mxGeometry x="390" y="20" width="120" height="80" as="geometry"/>
                </mxCell>
                <mxCell id="171" style="edgeStyle=orthogonalEdgeStyle;rounded=0;jumpStyle=gap;html=1;entryX=0.5;entryY=0;entryDx=0;entryDy=0;entryPerimeter=0;" parent="151" source="164" target="166" edge="1">
                    <mxGeometry relative="1" as="geometry"/>
                </mxCell>
                <mxCell id="175" style="edgeStyle=orthogonalEdgeStyle;rounded=0;jumpStyle=gap;html=1;entryX=0.5;entryY=0;entryDx=0;entryDy=0;entryPerimeter=0;" parent="151" source="172" target="174" edge="1">
                    <mxGeometry relative="1" as="geometry"/>
                </mxCell>
                <mxCell id="153" value="Отдел расходников" style="swimlane;html=1;startSize=20;horizontal=0;strokeColor=default;" parent="151" vertex="1">
                    <mxGeometry x="20" y="120" width="780" height="160" as="geometry">
                        <mxRectangle x="20" y="120" width="1010" height="30" as="alternateBounds"/>
                    </mxGeometry>
                </mxCell>
                <mxCell id="183" value="" style="edgeStyle=orthogonalEdgeStyle;rounded=0;jumpStyle=gap;html=1;" parent="153" source="166" edge="1">
                    <mxGeometry relative="1" as="geometry">
                        <mxPoint x="190" y="80" as="targetPoint"/>
                    </mxGeometry>
                </mxCell>
                <mxCell id="166" value="Создание заявки на расходники для заказа" style="points=[[0.25,0,0],[0.5,0,0],[0.75,0,0],[1,0.25,0],[1,0.5,0],[1,0.75,0],[0.75,1,0],[0.5,1,0],[0.25,1,0],[0,0.75,0],[0,0.5,0],[0,0.25,0]];shape=mxgraph.bpmn.task;whiteSpace=wrap;rectStyle=rounded;size=10;html=1;taskMarker=abstract;strokeColor=default;" parent="153" vertex="1">
                    <mxGeometry x="25" y="40" width="120" height="80" as="geometry"/>
                </mxCell>
                <mxCell id="169" value="Сбор расходников" style="points=[[0.25,0,0],[0.5,0,0],[0.75,0,0],[1,0.25,0],[1,0.5,0],[1,0.75,0],[0.75,1,0],[0.5,1,0],[0.25,1,0],[0,0.75,0],[0,0.5,0],[0,0.25,0]];shape=mxgraph.bpmn.task;whiteSpace=wrap;rectStyle=rounded;size=10;html=1;taskMarker=manual;strokeColor=default;" parent="153" vertex="1">
                    <mxGeometry x="390" y="40" width="120" height="80" as="geometry"/>
                </mxCell>
                <mxCell id="178" value="" style="edgeStyle=orthogonalEdgeStyle;rounded=0;jumpStyle=gap;html=1;" parent="153" source="174" target="177" edge="1">
                    <mxGeometry relative="1" as="geometry"/>
                </mxCell>
                <mxCell id="174" value="Перевод статуса выдачи в состояние &quot;выполнено&quot;" style="points=[[0.25,0,0],[0.5,0,0],[0.75,0,0],[1,0.25,0],[1,0.5,0],[1,0.75,0],[0.75,1,0],[0.5,1,0],[0.25,1,0],[0,0.75,0],[0,0.5,0],[0,0.25,0]];shape=mxgraph.bpmn.task;whiteSpace=wrap;rectStyle=rounded;size=10;html=1;taskMarker=user;strokeColor=default;" parent="153" vertex="1">
                    <mxGeometry x="549" y="41" width="120" height="80" as="geometry"/>
                </mxCell>
                <mxCell id="177" value="" style="points=[[0.145,0.145,0],[0.5,0,0],[0.855,0.145,0],[1,0.5,0],[0.855,0.855,0],[0.5,1,0],[0.145,0.855,0],[0,0.5,0]];shape=mxgraph.bpmn.event;html=1;verticalLabelPosition=bottom;labelBackgroundColor=#ffffff;verticalAlign=top;align=center;perimeter=ellipsePerimeter;outlineConnect=0;aspect=fixed;outline=end;symbol=terminate2;strokeColor=default;" parent="153" vertex="1">
                    <mxGeometry x="709" y="56" width="50" height="50" as="geometry"/>
                </mxCell>
                <mxCell id="179" value="Расходники&lt;br&gt;выданы" style="text;html=1;align=center;verticalAlign=middle;resizable=0;points=[];autosize=1;strokeColor=none;fillColor=none;" parent="153" vertex="1">
                    <mxGeometry x="689" y="106" width="90" height="40" as="geometry"/>
                </mxCell>
                <mxCell id="184" value="Передача&lt;br&gt;информации о заказе&lt;br&gt;подрядчику" style="text;html=1;align=center;verticalAlign=middle;resizable=0;points=[];autosize=1;strokeColor=none;fillColor=none;" parent="153" vertex="1">
                    <mxGeometry x="140" y="-5" width="150" height="60" as="geometry"/>
                </mxCell>
                <mxCell id="186" value="" style="points=[[0.145,0.145,0],[0.5,0,0],[0.855,0.145,0],[1,0.5,0],[0.855,0.855,0],[0.5,1,0],[0.145,0.855,0],[0,0.5,0]];shape=mxgraph.bpmn.event;html=1;verticalLabelPosition=bottom;labelBackgroundColor=#ffffff;verticalAlign=top;align=center;perimeter=ellipsePerimeter;outlineConnect=0;aspect=fixed;outline=throwing;symbol=message;strokeColor=default;" parent="153" vertex="1">
                    <mxGeometry x="190" y="55" width="50" height="50" as="geometry"/>
                </mxCell>
                <mxCell id="190" value="" style="edgeStyle=orthogonalEdgeStyle;rounded=0;jumpStyle=gap;html=1;" parent="153" source="187" target="169" edge="1">
                    <mxGeometry relative="1" as="geometry"/>
                </mxCell>
                <mxCell id="187" value="" style="points=[[0.145,0.145,0],[0.5,0,0],[0.855,0.145,0],[1,0.5,0],[0.855,0.855,0],[0.5,1,0],[0.145,0.855,0],[0,0.5,0]];shape=mxgraph.bpmn.event;html=1;verticalLabelPosition=bottom;labelBackgroundColor=#ffffff;verticalAlign=top;align=center;perimeter=ellipsePerimeter;outlineConnect=0;aspect=fixed;outline=catching;symbol=message;strokeColor=default;" parent="153" vertex="1">
                    <mxGeometry x="300" y="55" width="50" height="50" as="geometry"/>
                </mxCell>
                <mxCell id="189" value="Получение&lt;br&gt;печенья&amp;nbsp;" style="text;html=1;align=center;verticalAlign=middle;resizable=0;points=[];autosize=1;strokeColor=none;fillColor=none;" parent="153" vertex="1">
                    <mxGeometry x="280" y="5" width="90" height="40" as="geometry"/>
                </mxCell>
                <mxCell id="IVOCab5pVsxxlHQSK73W-302" style="edgeStyle=orthogonalEdgeStyle;rounded=0;orthogonalLoop=1;jettySize=auto;html=1;entryX=0.5;entryY=1;entryDx=0;entryDy=0;entryPerimeter=0;" parent="151" source="169" target="IVOCab5pVsxxlHQSK73W-301" edge="1">
                    <mxGeometry relative="1" as="geometry"/>
                </mxCell>
                <mxCell id="185" value="" style="dashed=1;dashPattern=8 4;endArrow=blockThin;endFill=1;startArrow=oval;startFill=0;endSize=6;startSize=4;html=1;rounded=0;jumpStyle=gap;exitX=0.5;exitY=1;exitDx=0;exitDy=0;exitPerimeter=0;" parent="1" edge="1">
                    <mxGeometry width="160" relative="1" as="geometry">
                        <mxPoint x="317" y="2784" as="sourcePoint"/>
                        <mxPoint x="317" y="2879" as="targetPoint"/>
                    </mxGeometry>
                </mxCell>
                <mxCell id="188" value="" style="dashed=1;dashPattern=8 4;endArrow=blockThin;endFill=1;startArrow=oval;startFill=0;endSize=6;startSize=4;html=1;rounded=0;jumpStyle=gap;entryX=0.5;entryY=1;entryDx=0;entryDy=0;entryPerimeter=0;" parent="1" target="187" edge="1">
                    <mxGeometry width="160" relative="1" as="geometry">
                        <mxPoint x="427" y="2879" as="sourcePoint"/>
                        <mxPoint x="652" y="2846.5" as="targetPoint"/>
                    </mxGeometry>
                </mxCell>
                <mxCell id="215" value="Подрядчик" style="swimlane;html=1;childLayout=stackLayout;resizeParent=1;resizeParentMax=0;startSize=20;whiteSpace=wrap;strokeColor=default;" parent="1" vertex="1" collapsed="1">
                    <mxGeometry x="305" y="2879" width="140" height="30" as="geometry">
                        <mxRectangle x="260" y="1120" width="40" height="480" as="alternateBounds"/>
                    </mxGeometry>
                </mxCell>
            </root>
        </mxGraphModel>
    </diagram>
</mxfile>